<?xml version="1.0" encoding="utf-8"?>
<!-- Generator: Adobe Illustrator 23.1.0, SVG Export Plug-In . SVG Version: 6.00 Build 0)  -->
<svg version="1.1" id="Capa_1" xmlns="http://www.w3.org/2000/svg" xmlns:xlink="http://www.w3.org/1999/xlink" x="0px" y="0px"
	 width="40px" height="24px" viewBox="0 0 40 24" style="enable-background:new 0 0 40 24;" xml:space="preserve">
<style type="text/css">
	.st0{fill:none;stroke:#757575;}
	.st1{fill-rule:evenodd;clip-rule:evenodd;fill:#EFEFEF;}
</style>
<g>
	<path class="st0" d="M4.5,0.5h31c2.2,0,4,1.8,4,4v15c0,2.2-1.8,4-4,4h-31c-2.2,0-4-1.8-4-4v-15C0.5,2.3,2.3,0.5,4.5,0.5z"/>
	<path class="st1" d="M10.5,9.9c0.6,0,1,0.2,1.3,0.6c0.3,0.4,0.5,0.9,0.5,1.5c0,0.6-0.2,1.1-0.5,1.5c-0.3,0.4-0.8,0.6-1.3,0.6
		c-0.3,0-0.5,0-0.7-0.1c-0.2-0.1-0.4-0.2-0.5-0.4v2H8.3V10h1v0.5C9.5,10.1,9.9,9.9,10.5,9.9L10.5,9.9z M16.3,9.9
		c0.6,0,1,0.2,1.3,0.6V10h1v4h-1v-0.5c-0.3,0.4-0.7,0.6-1.3,0.6c-0.6,0-1-0.2-1.3-0.6c-0.3-0.4-0.5-0.9-0.5-1.5
		c0-0.6,0.2-1.1,0.5-1.5C15.3,10.1,15.8,9.9,16.3,9.9L16.3,9.9z M24.7,9.9c0.6,0,1,0.2,1.3,0.6V10h1v4h-1v-0.5
		c-0.3,0.4-0.7,0.6-1.3,0.6c-0.6,0-1-0.2-1.3-0.6c-0.3-0.4-0.5-0.9-0.5-1.5c0-0.6,0.2-1.1,0.5-1.5C23.7,10.1,24.1,9.9,24.7,9.9z
		 M36.3,9.9c0.6,0,1.1,0.2,1.4,0.6c0.4,0.4,0.5,0.9,0.5,1.5l0,0.3h-2.9c0,0.3,0.1,0.5,0.3,0.6c0.2,0.1,0.4,0.2,0.7,0.2
		c0.2,0,0.3,0,0.5-0.1c0.1-0.1,0.2-0.2,0.3-0.3h1.1c-0.1,0.4-0.3,0.7-0.7,1c-0.3,0.2-0.7,0.4-1.2,0.4c-0.6,0-1.1-0.2-1.4-0.6
		c-0.4-0.4-0.6-0.9-0.6-1.5c0-0.6,0.2-1.1,0.6-1.5C35.3,10.1,35.7,9.9,36.3,9.9L36.3,9.9z M6.3,8.5L7.7,14H6.6l-0.3-1.3H4.1L3.7,14
		H2.6l0.3-1.3H1.7L2,11.8h4L5.1,8.5H6.3L6.3,8.5z M14,8.5V14h-1.1V8.5H14z M32.4,9.9c0.5,0,0.8,0.1,1.1,0.4c0.2,0.3,0.4,0.7,0.4,1.2
		V14h-1.1v-2.4c0-0.5-0.2-0.8-0.6-0.8c-0.3,0-0.4,0.1-0.6,0.2c-0.1,0.2-0.2,0.4-0.2,0.6V14h-1.1v-2.4c0-0.5-0.2-0.8-0.6-0.8
		c-0.2,0-0.4,0.1-0.6,0.2c-0.1,0.2-0.2,0.4-0.2,0.6V14h-1.1v-4h1v0.5c0.2-0.4,0.6-0.6,1.1-0.6c0.5,0,0.9,0.2,1.2,0.6
		C31.4,10.1,31.8,9.9,32.4,9.9L32.4,9.9z M22.6,10v0.9l-2,2.2h2V14h-3.4v-0.9l2-2.2h-2V10C19.3,10,22.6,10,22.6,10z M10.3,10.9
		c-0.3,0-0.5,0.1-0.7,0.3c-0.2,0.2-0.3,0.5-0.3,0.8c0,0.3,0.1,0.6,0.3,0.8c0.2,0.2,0.4,0.3,0.7,0.3c0.3,0,0.5-0.1,0.7-0.3
		c0.2-0.2,0.3-0.5,0.3-0.8c0-0.3-0.1-0.6-0.3-0.8C10.8,11,10.6,10.9,10.3,10.9z M16.6,10.9c-0.3,0-0.5,0.1-0.7,0.3
		c-0.2,0.2-0.3,0.5-0.3,0.8c0,0.3,0.1,0.6,0.3,0.8c0.2,0.2,0.4,0.3,0.7,0.3s0.5-0.1,0.7-0.3c0.2-0.2,0.3-0.5,0.3-0.8
		c0-0.3-0.1-0.6-0.3-0.8C17.1,11,16.9,10.9,16.6,10.9z M24.9,10.9c-0.3,0-0.5,0.1-0.7,0.3C24,11.4,24,11.7,24,12
		c0,0.3,0.1,0.6,0.3,0.8c0.2,0.2,0.4,0.3,0.7,0.3s0.5-0.1,0.7-0.3c0.2-0.2,0.3-0.5,0.3-0.8c0-0.3-0.1-0.6-0.3-0.8
		C25.5,11,25.2,10.9,24.9,10.9z M36.3,10.8c-0.2,0-0.4,0.1-0.6,0.2c-0.2,0.1-0.3,0.3-0.3,0.5h1.8c0-0.2-0.1-0.4-0.3-0.5
		C36.8,10.8,36.6,10.8,36.3,10.8z M5.1,8.5l-0.7,2.9H3.3L4,8.5H5.1z"/>
</g>
</svg>
