<svg xmlns="http://www.w3.org/2000/svg" width="50" height="50" viewBox="0 0 50 50">
    <g fill="none" fill-rule="evenodd">
        <circle cx="25" cy="25" r="25" fill="#1A1A1A"/>
        <path fill="#FFF" d="M34.742 19.788h-3.59V15H14.394A2.401 2.401 0 0 0 12 17.394V30.56h2.394a3.586 3.586 0 0 0 3.59 3.59 3.586 3.586 0 0 0 3.592-3.59h7.182a3.586 3.586 0 0 0 3.59 3.59 3.586 3.586 0 0 0 3.591-3.59h2.394v-5.985l-3.59-4.788zM17.985 32.356a1.793 1.793 0 0 1-1.796-1.795c0-.994.802-1.796 1.796-1.796.993 0 1.795.802 1.795 1.796 0 .993-.802 1.795-1.795 1.795zm16.159-10.773l2.346 2.993h-5.338v-2.993h2.992zm-1.796 10.773a1.793 1.793 0 0 1-1.795-1.795c0-.994.802-1.796 1.795-1.796.994 0 1.796.802 1.796 1.796 0 .993-.802 1.795-1.796 1.795z"/>
    </g>
</svg>
